<svg width="1430" height="1404" xmlns="http://www.w3.org/2000/svg" xmlns:xlink="http://www.w3.org/1999/xlink" xml:space="preserve" overflow="hidden"><g transform="translate(-1484 -536)"><path d="M93.8108 1347.06C83.3668 1345.48 72.2901 1341.36 66.2769 1336.62 43.4906 1319.23 28.2995 1268.95 19.1215 1183.25 5.19672 1050.11-4.93082 707.628 0.132768 527.69L2.34834 439.777 20.3875 428.392C57.4157 404.991 109.002 354.709 141.283 310.436 173.247 267.112 213.44 190.583 223.25 155.165 232.428 121.644 239.074 70.4134 239.074 33.0976 239.074 15.3884 240.34 0.209303 241.606-0.739416 244.771-2.63685 299.522 24.8756 330.854 44.1658 453.331 119.114 559.984 244.343 613.469 375.265 656.194 480.571 671.068 561.211 668.536 672.526 666.954 740.833 663.789 763.286 648.598 825.901 610.937 979.591 525.804 1113.36 402.061 1213.29 353.007 1252.82 318.194 1274.32 251.734 1306.26 184.956 1338.2 130.206 1352.43 93.8108 1347.06Z" fill="#684330" fill-rule="evenodd" transform="matrix(1 0 0 -1 2245 1885)"/><path d="M305.188 857.543C280.198 852.48 240.341 837.921 212.504 823.679 190.994 812.918 119.821 748.986 89.4535 713.539 71.7394 693.283 26.8213 608.78 15.7499 576.181-1.33173 524.909-5.76035 444.204 6.26016 398.629 19.2294 349.572 56.2393 265.069 79.9638 230.571 116.341 177.4 196.372 118.216 297.28 69.1596 412.106 13.7736 452.595-3.95037 455.758-0.785162 459.871 3.0128 460.82 237.534 457.34 325.835 444.687 646.759 438.993 725.566 423.493 792.979 416.851 822.729 398.82 849.948 381.422 856.91 365.922 863.24 334.606 863.557 305.188 857.543Z" fill="#684330" fill-rule="evenodd" transform="matrix(1 0 0 -1 1701 1400)"/><path d="M187.171 1175.2C83.6211 1060.66 22.5042 930.299 3.8208 781.9-0.612613 748.677-1.2458 725.262 0.0209379 675.901 2.87101 566.422 22.1876 489.217 71.9042 386.699 146.955 232.922 274.255 115.215 439.238 46.8699 486.738 27.2522 532.655 15.2285 598.205 4.78671 643.172-2.49067 751.155-2.49067 797.072 4.78671 838.872 11.4315 901.572 25.9866 901.572 29.1507 901.572 30.4162 898.406 32.631 894.605 33.8969 890.489 34.8462 881.622 38.3266 874.656 41.4906 867.689 44.655 844.256 54.4639 822.405 63.0068 732.472 98.7618 660.272 134.2 582.055 180.713 427.521 272.157 350.888 335.44 277.738 432.263 183.054 557.246 147.271 624.326 122.254 721.782 112.754 759.435 112.121 765.13 110.854 835.691 109.904 876.508 110.221 909.099 111.171 908.15 112.121 907.2 115.921 886.001 119.404 860.688 137.138 737.919 177.038 640.463 253.038 534.148 318.905 442.388 383.821 378.788 481.355 310.126 540.255 268.36 547.538 263.93 710.622 167.74 779.972 126.606 932.605 47.8191 942.422 47.8191 949.072 47.8191 950.022 65.5383 946.222 111.102 939.889 190.206 928.489 223.745 885.105 293.673 857.239 338.287 834.756 367.081 804.355 396.508 766.989 432.579 734.688 451.247 637.155 493.33 597.255 510.417 481.988 565.156 440.822 586.356 374.955 620.212 292.938 687.925 253.038 741.083 223.588 780.318 174.821 899.29 166.588 952.764 164.371 967.636 163.738 993.581 164.688 1022.38 167.221 1080.91 177.038 1125.21 196.988 1166.98 204.904 1183.75 210.921 1197.99 210.288 1198.3 209.654 1198.93 199.521 1188.49 187.171 1175.2Z" fill="#684330" fill-rule="evenodd" transform="matrix(1 0 0 -1 1485 1939)"/></g></svg>